<svg width="38" height="43" viewBox="0 0 38 43" fill="none" xmlns="http://www.w3.org/2000/svg">
<path d="M25.7425 28.1676C25.7425 28.1676 25.7424 28.1676 25.7425 28.1676Z" fill="white"/>
<path fill-rule="evenodd" clip-rule="evenodd" d="M20.2491 23.879L19.7208 23.9426V35.321C19.7208 35.5602 19.6216 35.7953 19.4356 35.9731C19.2486 36.1518 18.9893 36.2567 18.7137 36.2567C18.438 36.2567 18.1788 36.1518 17.9918 35.9731C17.8057 35.7953 17.7065 35.5602 17.7065 35.321V23.9426L17.1782 23.879C14.486 23.5549 11.9697 22.3857 10.0369 20.5388C7.74109 18.345 6.45667 15.3755 6.45667 12.2853C6.45667 9.1951 7.74109 6.22562 10.0369 4.0318C12.3337 1.8371 15.4544 0.599609 18.7137 0.599609C21.9731 0.599609 25.0938 1.8371 27.3905 4.0318C29.6864 6.22562 30.9708 9.1951 30.9708 12.2853C30.9708 15.3755 29.6864 18.345 27.3905 20.5388C25.4577 22.3857 22.9414 23.555 20.2491 23.879ZM11.4807 19.2346C13.4035 21.0719 16.0057 22.0996 18.7137 22.0996C21.4217 22.0996 24.024 21.0719 25.9467 19.2346C27.8704 17.3964 28.9565 14.8972 28.9565 12.2853C28.9565 9.67337 27.8704 7.17425 25.9467 5.33604C24.024 3.49871 21.4217 2.47103 18.7137 2.47103C16.0057 2.47103 13.4035 3.49871 11.4807 5.33604C9.55703 7.17425 8.47093 9.67337 8.47093 12.2853C8.47093 14.8972 9.55703 17.3964 11.4807 19.2346Z" fill="white"/>
<path d="M32.3591 32.5342C30.7086 31.8004 28.4285 31.1317 25.7424 30.6845V28.775C29.1446 29.3134 32.0317 30.2271 34.0889 31.3657C36.3191 32.6 37.3995 33.9922 37.3995 35.3211C37.3995 36.1615 36.974 37.0239 36.0728 37.8722C35.1705 38.7215 33.8325 39.5141 32.1292 40.1925C28.7261 41.5477 23.9834 42.3997 18.7139 42.3997C13.4444 42.3997 8.70175 41.5477 5.29858 40.1925C3.59529 39.5141 2.25728 38.7215 1.35499 37.8722C0.453826 37.0239 0.0283203 36.1615 0.0283203 35.3211C0.0283203 33.9938 1.10859 32.6016 3.33899 31.3668C5.39625 30.2278 8.28333 29.3135 11.6854 28.775V30.6845C8.99947 31.1316 6.71936 31.7996 5.0688 32.533C4.1947 32.9214 3.47209 33.3391 2.95737 33.7699C2.47059 34.1773 2.04259 34.7034 2.04259 35.3211C2.04259 35.7434 2.24518 36.1179 2.50283 36.4245C2.76451 36.7359 3.12719 37.0311 3.55626 37.3082C4.41628 37.8637 5.631 38.4025 7.10322 38.8745C10.054 39.8205 14.134 40.5283 18.7139 40.5283C23.2938 40.5283 27.3738 39.8205 30.3246 38.8745C31.7968 38.4025 33.0115 37.8637 33.8716 37.3082C34.3006 37.0311 34.6633 36.7359 34.925 36.4245C35.1826 36.1179 35.3852 35.7434 35.3852 35.3211C35.3852 34.7038 34.9568 34.178 34.4704 33.7711C33.9557 33.3406 33.2332 32.9228 32.3591 32.5342Z" fill="white"/>
</svg>
